<svg width="17" height="17" viewBox="0 0 17 17" fill="none" xmlns="http://www.w3.org/2000/svg">
<g clip-path="url(#clip0_78_127)">
<path d="M8.41297 16.8C8.0472 16.7999 7.68182 16.7761 7.31911 16.7289C5.39719 16.4793 3.62072 15.5727 2.29083 14.1629C0.960946 12.7531 0.159465 10.9268 0.0222487 8.99363C-0.114968 7.06043 0.420522 5.13925 1.53795 3.55575C2.65537 1.97225 4.28598 0.823859 6.15337 0.305243C8.30025 -0.290575 10.5959 -0.00914703 12.5353 1.08762C14.4746 2.18438 15.8989 4.00663 16.4947 6.15351C17.0905 8.30038 16.8091 10.596 15.7123 12.5354C14.6156 14.4748 12.7933 15.899 10.6464 16.4948C9.91924 16.6974 9.16786 16.8001 8.41297 16.8ZM8.38703 2.07018C7.20578 2.07266 6.0488 2.40566 5.04697 3.03149C4.04513 3.65732 3.23841 4.55101 2.71806 5.61148C2.19771 6.67194 1.98451 7.85686 2.10255 9.03219C2.2206 10.2075 2.66519 11.3264 3.38604 12.2622C4.02125 13.0862 4.84986 13.7409 5.79849 14.1683C6.74711 14.5957 7.78649 14.7826 8.82458 14.7125C9.86267 14.6423 10.8674 14.3172 11.7499 13.7661C12.6324 13.2149 13.3654 12.4547 13.8839 11.5526C14.4025 10.6506 14.6906 9.63464 14.7228 8.59468C14.755 7.55472 14.5303 6.52286 14.0685 5.59048C13.6068 4.6581 12.9222 3.85396 12.0755 3.24927C11.2288 2.64458 10.2461 2.25799 9.21433 2.12375C8.94 2.08814 8.66366 2.07024 8.38703 2.07018Z" fill="#F5F379"/>
<path d="M8.39988 2.84536L2.84534 8.3999L8.39988 13.9544L13.9544 8.3999L8.39988 2.84536Z" fill="#F5F379"/>
</g>
<defs>
<clipPath id="clip0_78_127">
<rect width="16.8" height="16.8" fill="white"/>
</clipPath>
</defs>
</svg>
