<svg width="36" height="30" viewBox="0 0 36 30" fill="none" xmlns="http://www.w3.org/2000/svg">
<g clip-path="url(#clip0_78_1061)">
<path d="M19.69 17.56H1.6C1.18249 17.5601 0.781474 17.3971 0.48254 17.1056C0.183605 16.8141 0.0104376 16.4174 0 16L0 1.6C0 1.17565 0.168571 0.768687 0.468629 0.468629C0.768687 0.168571 1.17565 0 1.6 0L19.69 0C19.9001 0 20.1082 0.0413852 20.3023 0.121793C20.4964 0.2022 20.6728 0.320055 20.8214 0.468629C20.9699 0.617203 21.0878 0.793586 21.1682 0.987706C21.2486 1.18183 21.29 1.38989 21.29 1.6V16C21.2821 16.4182 21.1098 16.8165 20.8103 17.1085C20.5108 17.4005 20.1083 17.5627 19.69 17.56ZM1.6 1.2C1.49391 1.2 1.39217 1.24214 1.31716 1.31716C1.24214 1.39217 1.2 1.49391 1.2 1.6V16C1.2 16.1061 1.24214 16.2078 1.31716 16.2828C1.39217 16.3579 1.49391 16.4 1.6 16.4H19.69C19.7425 16.4 19.7945 16.3897 19.8431 16.3696C19.8916 16.3495 19.9357 16.32 19.9728 16.2828C20.01 16.2457 20.0394 16.2016 20.0596 16.1531C20.0797 16.1045 20.09 16.0525 20.09 16V1.6C20.09 1.49391 20.0479 1.39217 19.9728 1.31716C19.8978 1.24214 19.7961 1.2 19.69 1.2H1.6Z" fill="#170134"/>
<path d="M34.4 17.56H24.79C24.5795 17.5613 24.3708 17.5208 24.1761 17.4409C23.9814 17.361 23.8045 17.2432 23.6556 17.0943C23.5068 16.9455 23.389 16.7686 23.3091 16.5739C23.2291 16.3791 23.1886 16.1705 23.19 15.96V1.6C23.19 1.17565 23.3585 0.768687 23.6586 0.468629C23.9587 0.168571 24.3656 0 24.79 0L34.4 0C34.8243 0 35.2313 0.168571 35.5313 0.468629C35.8314 0.768687 36 1.17565 36 1.6V16C35.9895 16.4174 35.8164 16.8141 35.5174 17.1056C35.2185 17.3971 34.8175 17.5601 34.4 17.56ZM24.79 1.2C24.6839 1.2 24.5821 1.24214 24.5071 1.31716C24.4321 1.39217 24.39 1.49391 24.39 1.6V16C24.39 16.1061 24.4321 16.2078 24.5071 16.2828C24.5821 16.3579 24.6839 16.4 24.79 16.4H34.4C34.4525 16.4 34.5045 16.3897 34.553 16.3696C34.6016 16.3495 34.6457 16.32 34.6828 16.2828C34.72 16.2457 34.7494 16.2016 34.7695 16.1531C34.7896 16.1045 34.8 16.0525 34.8 16V1.6C34.8 1.49391 34.7578 1.39217 34.6828 1.31716C34.6078 1.24214 34.5061 1.2 34.4 1.2H24.79Z" fill="#170134"/>
<path d="M34.4 30H1.59998C1.17563 30 0.768663 29.8314 0.468605 29.5314C0.168547 29.2313 -2.38803e-05 28.8243 -2.38803e-05 28.4V20.63C-0.00401132 20.4174 0.0344288 20.2061 0.113049 20.0085C0.19167 19.8109 0.308893 19.631 0.457865 19.4792C0.606838 19.3274 0.784571 19.2069 0.980673 19.1246C1.17678 19.0423 1.38731 19 1.59998 19H34.4C34.8243 19 35.2313 19.1686 35.5313 19.4686C35.8314 19.7687 36 20.1757 36 20.6V28.4C36 28.8243 35.8314 29.2313 35.5313 29.5314C35.2313 29.8314 34.8243 30 34.4 30ZM1.59998 20.23C1.49389 20.23 1.39215 20.2721 1.31713 20.3472C1.24212 20.4222 1.19998 20.5239 1.19998 20.63V28.4C1.19998 28.5061 1.24212 28.6078 1.31713 28.6828C1.39215 28.7579 1.49389 28.8 1.59998 28.8H34.4C34.5061 28.8 34.6078 28.7579 34.6828 28.6828C34.7578 28.6078 34.8 28.5061 34.8 28.4V20.63C34.8 20.5239 34.7578 20.4222 34.6828 20.3472C34.6078 20.2721 34.5061 20.23 34.4 20.23H1.59998Z" fill="#170134"/>
<path d="M8.09999 14.6899C7.97125 14.6897 7.84441 14.6589 7.72999 14.5999C7.62328 14.5385 7.53356 14.4515 7.46895 14.3468C7.40435 14.242 7.36689 14.1228 7.35999 13.9999V4.61988C7.36358 4.49354 7.39947 4.37023 7.46424 4.2617C7.52901 4.15316 7.6205 4.06303 7.72999 3.99988C7.84214 3.93394 7.96988 3.89917 8.09999 3.89917C8.23009 3.89917 8.35783 3.93394 8.46999 3.99988L16.47 8.65988C16.5792 8.72746 16.6695 8.8216 16.7324 8.93352C16.7954 9.04544 16.8289 9.17148 16.83 9.29988C16.8301 9.42717 16.797 9.55227 16.7338 9.66278C16.6707 9.77329 16.5797 9.86537 16.47 9.92988L8.46999 14.5999C8.35754 14.664 8.22932 14.6952 8.09999 14.6899ZM8.55999 5.42988V13.1499L15.13 9.28988L8.55999 5.42988Z" fill="#170134"/>
</g>
<defs>
<clipPath id="clip0_78_1061">
<rect width="36" height="30" fill="white"/>
</clipPath>
</defs>
</svg>
