<svg width="36" height="30" viewBox="0 0 36 30" fill="none" xmlns="http://www.w3.org/2000/svg">
<g clip-path="url(#clip0_78_1058)">
<path d="M33.68 4.57V2.91C33.68 2.13822 33.3734 1.39805 32.8277 0.852319C32.282 0.306588 31.5418 0 30.77 0L2.91 0C2.13903 0.00263581 1.40039 0.310071 0.855231 0.855231C0.310071 1.40039 0.00263581 2.13903 0 2.91L0 6.73V27.26C-2.40195e-06 27.6207 0.0711998 27.9778 0.209523 28.3109C0.347845 28.644 0.550567 28.9465 0.80606 29.201C1.06155 29.4556 1.36479 29.6572 1.69838 29.7943C2.03196 29.9314 2.38934 30.0013 2.75 30H33.25C33.9776 30 34.6756 29.7116 35.191 29.1981C35.7065 28.6845 35.9974 27.9876 36 27.26V7.26C35.9958 6.60913 35.7601 5.98101 35.335 5.48812C34.9099 4.99522 34.3232 4.66976 33.68 4.57ZM2.18 2.91C2.18 2.71639 2.25691 2.53071 2.39381 2.39381C2.53071 2.25691 2.71639 2.18 2.91 2.18H30.77C30.9636 2.18 31.1493 2.25691 31.2862 2.39381C31.4231 2.53071 31.5 2.71639 31.5 2.91V5.08H2.18V2.91ZM2.18 7.18H33.79V11.92H25.13C24.4379 11.8894 23.7468 11.9993 23.0984 12.2431C22.45 12.4869 21.8576 12.8594 21.3571 13.3383C20.8565 13.8173 20.4582 14.3926 20.186 15.0296C19.9139 15.6667 19.7736 16.3523 19.7736 17.045C19.7736 17.7377 19.9139 18.4233 20.186 19.0604C20.4582 19.6974 20.8565 20.2727 21.3571 20.7517C21.8576 21.2306 22.45 21.6031 23.0984 21.8469C23.7468 22.0907 24.4379 22.2006 25.13 22.17H33.78V27.26C33.78 27.4032 33.7231 27.5406 33.6218 27.6418C33.5206 27.7431 33.3832 27.8 33.24 27.8H2.75C2.60678 27.8 2.46943 27.7431 2.36816 27.6418C2.26689 27.5406 2.21 27.4032 2.21 27.26L2.18 7.18ZM22.18 17.05C22.18 16.2756 22.4876 15.5329 23.0352 14.9852C23.5829 14.4376 24.3256 14.13 25.1 14.13H33.75V20H25.15C24.7657 20.0013 24.3849 19.9268 24.0295 19.7806C23.6741 19.6345 23.351 19.4196 23.0788 19.1483C22.8066 18.877 22.5906 18.5547 22.4432 18.1998C22.2959 17.8448 22.22 17.4643 22.22 17.08L22.18 17.05Z" fill="#170134"/>
<path d="M25.74 18.8C26.7065 18.8 27.49 18.0165 27.49 17.05C27.49 16.0835 26.7065 15.3 25.74 15.3C24.7735 15.3 23.99 16.0835 23.99 17.05C23.99 18.0165 24.7735 18.8 25.74 18.8Z" fill="#170134"/>
</g>
<defs>
<clipPath id="clip0_78_1058">
<rect width="36" height="30" fill="white"/>
</clipPath>
</defs>
</svg>
