<svg width="51" height="41" viewBox="0 0 51 41" fill="none" xmlns="http://www.w3.org/2000/svg">
<g clip-path="url(#clip0_78_1052)">
<path d="M48.8601 37.8H45.1081C47.5603 34.1531 48.9759 29.9086 49.2037 25.5199C49.4316 21.1311 48.4631 16.7628 46.4018 12.8816C44.3404 9.00037 41.2635 5.75191 37.4998 3.48313C33.736 1.21435 29.4267 0.0104491 25.0321 0C20.6374 0.0104491 16.3281 1.21435 12.5643 3.48313C8.80058 5.75191 5.72373 9.00037 3.66236 12.8816C1.60099 16.7628 0.632525 21.1311 0.860379 25.5199C1.08823 29.9086 2.50385 34.1531 4.95606 37.8H1.54006C1.32643 37.7796 1.11089 37.804 0.907262 37.8717C0.703633 37.9395 0.516409 38.049 0.357601 38.1934C0.198792 38.3377 0.0719041 38.5137 -0.0149248 38.7099C-0.101754 38.9062 -0.146606 39.1184 -0.146606 39.333C-0.146606 39.5476 -0.101754 39.7598 -0.0149248 39.9561C0.0719041 40.1523 0.198792 40.3283 0.357601 40.4726C0.516409 40.617 0.703633 40.7265 0.907262 40.7943C1.11089 40.862 1.32643 40.8864 1.54006 40.866H48.8601C49.0737 40.8864 49.2892 40.862 49.4929 40.7943C49.6965 40.7265 49.8837 40.617 50.0425 40.4726C50.2013 40.3283 50.3282 40.1523 50.415 39.9561C50.5019 39.7598 50.5467 39.5476 50.5467 39.333C50.5467 39.1184 50.5019 38.9062 50.415 38.7099C50.3282 38.5137 50.2013 38.3377 50.0425 38.1934C49.8837 38.049 49.6965 37.9395 49.4929 37.8717C49.2892 37.804 49.0737 37.7796 48.8601 37.8ZM25.0181 2.8C30.7129 2.80369 36.174 5.0647 40.2048 9.08761C44.2355 13.1105 46.5072 18.5672 46.5221 24.262C46.5326 29.0529 44.9409 33.7098 42.0001 37.492H8.09206C5.62165 34.319 4.09108 30.5165 3.67437 26.5169C3.25766 22.5173 3.97153 18.481 5.73481 14.8669C7.4981 11.2528 10.2401 8.20596 13.6489 6.0728C17.0578 3.93964 20.9968 2.80573 25.0181 2.8ZM19.6001 30.422C19.0546 29.8696 18.626 29.2131 18.3398 28.4915C18.0536 27.7699 17.9156 26.9981 17.9341 26.222C17.9341 25.8507 18.0816 25.4946 18.3441 25.2321C18.6067 24.9695 18.9628 24.822 19.3341 24.822C19.7054 24.822 20.0615 24.9695 20.324 25.2321C20.5866 25.4946 20.7341 25.8507 20.7341 26.222C20.718 26.6349 20.7868 27.0466 20.9361 27.4319C21.0854 27.8172 21.312 28.1677 21.6021 28.462C22.6255 29.3429 23.9497 29.7943 25.2981 29.722C26.6001 29.736 29.4001 28.938 29.4001 26.6C29.4001 24.724 27.8741 23.996 24.6261 22.876C21.8261 21.91 18.3541 20.706 18.3821 17.024C18.404 16.259 18.5803 15.5063 18.9003 14.811C19.2202 14.1158 19.6773 13.4923 20.2441 12.978C21.2085 12.1236 22.4093 11.5818 23.6881 11.424V9.898C23.6881 9.5267 23.8356 9.1706 24.0981 8.90805C24.3607 8.6455 24.7168 8.498 25.0881 8.498C25.4594 8.498 25.8155 8.6455 26.078 8.90805C26.3406 9.1706 26.4881 9.5267 26.4881 9.898V11.41C28.0239 11.5382 29.4526 12.2492 30.4809 13.3973C31.5091 14.5453 32.0592 16.0433 32.0181 17.584C32.0107 17.7679 31.9672 17.9485 31.8901 18.1155C31.8129 18.2825 31.7036 18.4327 31.5684 18.5575C31.4332 18.6823 31.2747 18.7793 31.1021 18.8429C30.9294 18.9064 30.7459 18.9354 30.5621 18.928C30.3782 18.9206 30.1976 18.8772 30.0306 18.8C29.8635 18.7229 29.7133 18.6136 29.5885 18.4784C29.4637 18.3431 29.3668 18.1847 29.3032 18.012C29.2396 17.8393 29.2107 17.6558 29.2181 17.472C29.2181 16.954 29.1061 14.35 25.5781 14.07H24.8781C23.8582 14.024 22.8585 14.3639 22.0781 15.022C21.7881 15.2765 21.5538 15.5882 21.39 15.9375C21.2262 16.2869 21.1363 16.6663 21.1261 17.052C21.1261 18.578 22.5261 19.236 25.5081 20.258C28.4901 21.28 32.1441 22.54 32.1441 26.586C32.1441 30.002 29.2181 31.878 26.6421 32.382V33.936C26.6421 34.3073 26.4946 34.6634 26.232 34.9259C25.9695 35.1885 25.6134 35.336 25.2421 35.336C24.8708 35.336 24.5147 35.1885 24.2521 34.9259C23.9896 34.6634 23.8421 34.3073 23.8421 33.936V32.41C22.2499 32.2248 20.7611 31.5271 19.6001 30.422Z" fill="white"/>
</g>
<defs>
<clipPath id="clip0_78_1052">
<rect width="50.4" height="40.922" fill="white"/>
</clipPath>
</defs>
</svg>
