<svg width="35" height="7" viewBox="0 0 35 7" fill="none" xmlns="http://www.w3.org/2000/svg">
<g clip-path="url(#clip0_78_1054)">
<path d="M3.3385 6.67699C5.1823 6.67699 6.67699 5.1823 6.67699 3.3385C6.67699 1.4947 5.1823 0 3.3385 0C1.4947 0 0 1.4947 0 3.3385C0 5.1823 1.4947 6.67699 3.3385 6.67699Z" fill="white"/>
<path d="M17.2731 6.67699C19.1169 6.67699 20.6116 5.1823 20.6116 3.3385C20.6116 1.4947 19.1169 0 17.2731 0C15.4293 0 13.9346 1.4947 13.9346 3.3385C13.9346 5.1823 15.4293 6.67699 17.2731 6.67699Z" fill="white"/>
<path d="M31.2078 6.67699C33.0516 6.67699 34.5463 5.1823 34.5463 3.3385C34.5463 1.4947 33.0516 0 31.2078 0C29.364 0 27.8693 1.4947 27.8693 3.3385C27.8693 5.1823 29.364 6.67699 31.2078 6.67699Z" fill="white"/>
</g>
<defs>
<clipPath id="clip0_78_1054">
<rect width="34.5704" height="6.70118" fill="white"/>
</clipPath>
</defs>
</svg>
