<svg width="36" height="30" viewBox="0 0 36 30" fill="none" xmlns="http://www.w3.org/2000/svg">
<g clip-path="url(#clip0_78_1066)">
<path d="M18 13.8201C16.159 13.8203 14.392 13.0951 13.0818 11.8018C11.7716 10.5084 11.0237 8.75099 11 6.91012C11 5.04299 11.7417 3.25234 13.062 1.93209C14.3822 0.611829 16.1729 -0.129883 18.04 -0.129883C19.9071 -0.129883 21.6978 0.611829 23.018 1.93209C24.3383 3.25234 25.08 5.04299 25.08 6.91012C25.0563 8.76493 24.2973 10.5345 22.9698 11.8301C21.6423 13.1257 19.8548 13.8415 18 13.8201ZM18 1.18012C16.473 1.1774 15.0068 1.778 13.9205 2.85118C12.8342 3.92435 12.2158 5.3832 12.2 6.91012C12.2 8.45898 12.8153 9.94441 13.9105 11.0396C15.0057 12.1348 16.4911 12.7501 18.04 12.7501C19.5889 12.7501 21.0743 12.1348 22.1695 11.0396C23.2647 9.94441 23.88 8.45898 23.88 6.91012C23.8722 6.14719 23.7137 5.39334 23.4135 4.69188C23.1134 3.99042 22.6776 3.3552 22.1312 2.82271C21.5848 2.29023 20.9385 1.871 20.2295 1.5891C19.5206 1.30721 18.7629 1.16822 18 1.18012Z" fill="#170134"/>
<path d="M34.12 30H1.88C1.38576 30.0027 0.910565 29.8096 0.558281 29.4629C0.205997 29.1163 0.00527883 28.6442 0 28.15V26.36C0.0316766 23.363 1.25066 20.5008 3.38961 18.4012C5.52856 16.3016 8.41287 15.136 11.41 15.16H24.59C27.5871 15.136 30.4714 16.3016 32.6104 18.4012C34.7493 20.5008 35.9683 23.363 36 26.36V28.15C35.9947 28.6442 35.794 29.1163 35.4417 29.4629C35.0894 29.8096 34.6142 30.0027 34.12 30ZM11.41 16.34C8.7319 16.3187 6.15432 17.3587 4.24099 19.2327C2.32766 21.1067 1.23428 23.6621 1.2 26.34V28.13C1.20263 28.3086 1.27543 28.479 1.40267 28.6044C1.52991 28.7298 1.70137 28.8001 1.88 28.8H34.12C34.2986 28.8001 34.4701 28.7298 34.5973 28.6044C34.7246 28.479 34.7974 28.3086 34.8 28.13V26.36C34.7657 23.6821 33.6723 21.1267 31.759 19.2527C29.8457 17.3787 27.2681 16.3387 24.59 16.36L11.41 16.34Z" fill="#170134"/>
</g>
<defs>
<clipPath id="clip0_78_1066">
<rect width="36" height="30" fill="white"/>
</clipPath>
</defs>
</svg>
