<svg width="51" height="51" viewBox="0 0 51 51" fill="none" xmlns="http://www.w3.org/2000/svg">
<g clip-path="url(#clip0_78_1046)">
<path d="M31.178 50.4C31.2756 50.4004 31.3717 50.3759 31.4572 50.3288C31.5426 50.2817 31.6147 50.2136 31.6666 50.131C31.7184 50.0483 31.7483 49.9538 31.7535 49.8563C31.7586 49.7588 31.7388 49.6617 31.696 49.574C31.0684 48.1806 30.6214 46.7127 30.366 45.206L28.966 35.994C28.967 35.8773 29.0064 35.7641 29.078 35.672C29.1385 35.5636 29.2285 35.4745 29.3375 35.415C29.4465 35.3556 29.5701 35.3282 29.694 35.336C29.8712 35.3397 30.0443 35.3894 30.1965 35.4802C30.3487 35.571 30.4746 35.6998 30.562 35.854L36.4 43.764C36.5857 44.0258 36.8677 44.2031 37.1841 44.2569C37.5004 44.3107 37.8252 44.2367 38.087 44.051C38.3488 43.8653 38.5261 43.5833 38.5799 43.2669C38.6337 42.9506 38.5597 42.6258 38.374 42.364V30.996L43.792 35.798C44.0333 36.0043 44.2279 36.2595 44.3631 36.5467C44.4983 36.8339 44.5708 37.1466 44.576 37.464L44.8 49.21C44.8 49.5256 44.9254 49.8283 45.1485 50.0515C45.3717 50.2746 45.6744 50.4 45.99 50.4C46.3067 50.3925 46.608 50.2619 46.83 50.036C46.9397 49.923 47.026 49.7893 47.0836 49.6427C47.1413 49.4961 47.1693 49.3395 47.166 49.182L46.984 37.436C46.9716 36.7846 46.8232 36.1431 46.5484 35.5524C46.2735 34.9617 45.8783 34.435 45.388 34.006L38.388 27.79V26.39H44.38C45.1687 26.3918 45.9501 26.2383 46.6795 25.9382C47.4089 25.6381 48.072 25.1972 48.631 24.6408C49.19 24.0844 49.6339 23.4233 49.9375 22.6953C50.241 21.9674 50.3982 21.1867 50.4 20.398V6.006C50.4 4.41311 49.7672 2.88546 48.6409 1.75912C47.5145 0.632773 45.9869 0 44.394 0L6.006 0C4.41311 0 2.88546 0.632773 1.75912 1.75912C0.632773 2.88546 0 4.41311 0 6.006L0 20.398C0 21.9909 0.632773 23.5185 1.75912 24.6449C2.88546 25.7712 4.41311 26.404 6.006 26.404H11.998V40.404C12.0017 41.9945 12.6361 43.5185 13.7621 44.6418C14.888 45.7652 16.4135 46.396 18.004 46.396H28.154C28.4164 47.644 28.8009 48.8632 29.302 50.036C29.3449 50.1452 29.4202 50.2386 29.5179 50.3037C29.6155 50.3688 29.7307 50.4024 29.848 50.4H31.178ZM35.994 39.2L32.508 34.51C32.2056 34.0402 31.7917 33.6524 31.3032 33.3813C30.8147 33.1102 30.2667 32.9641 29.708 32.956C29.1859 32.954 28.6713 33.0808 28.2098 33.3249C27.7483 33.5691 27.3541 33.9232 27.062 34.356C26.6492 34.9518 26.4836 35.6845 26.6 36.4L27.776 44.002H17.976C17.0218 44.002 16.1066 43.6229 15.4318 42.9482C14.7571 42.2734 14.378 41.3582 14.378 40.404V13.286H35.994V39.2ZM48.006 20.426C48.0023 21.3815 47.6201 22.2967 46.9431 22.971C46.2661 23.6454 45.3495 24.024 44.394 24.024H38.402V13.286H41.202C41.5213 13.286 41.8276 13.1591 42.0534 12.9334C42.2792 12.7076 42.406 12.4013 42.406 12.082C42.406 11.7627 42.2792 11.4564 42.0534 11.2306C41.8276 11.0048 41.5213 10.878 41.202 10.878H9.198C8.87868 10.878 8.57244 11.0048 8.34664 11.2306C8.12085 11.4564 7.994 11.7627 7.994 12.082C7.994 12.4013 8.12085 12.7076 8.34664 12.9334C8.57244 13.1591 8.87868 13.286 9.198 13.286H11.998V23.996H6.006C5.05046 23.996 4.13385 23.6174 3.45687 22.943C2.77989 22.2687 2.3977 21.3535 2.394 20.398V6.006C2.40132 5.0503 2.78422 4.13582 3.46002 3.46002C4.13582 2.78422 5.0503 2.40132 6.006 2.394H44.394C45.3497 2.40132 46.2642 2.78422 46.94 3.46002C47.6158 4.13582 47.9987 5.0503 48.006 6.006V20.426Z" fill="white"/>
<path d="M22.694 24.4021C23.3424 24.8336 24.0375 25.1906 24.766 25.4661C26.894 26.3761 27.048 26.6701 26.768 27.5101C26.7021 27.7006 26.5913 27.8725 26.4452 28.0114C26.299 28.1502 26.1217 28.252 25.928 28.3081C25.6713 28.4026 25.3963 28.4366 25.1244 28.4074C24.8524 28.3783 24.5908 28.2868 24.36 28.1401L23.1 27.3281C22.8252 27.1554 22.4931 27.099 22.1768 27.1712C21.8604 27.2434 21.5857 27.4383 21.413 27.7131C21.2404 27.9879 21.1839 28.32 21.2561 28.6363C21.3283 28.9527 21.5232 29.2274 21.798 29.4001L23.072 30.2121C23.3679 30.3905 23.6825 30.536 24.01 30.6461V31.8921C24.042 32.1872 24.1819 32.4602 24.4028 32.6585C24.6237 32.8568 24.9101 32.9665 25.207 32.9665C25.5039 32.9665 25.7903 32.8568 26.0112 32.6585C26.2322 32.4602 26.372 32.1872 26.404 31.8921V30.6601C26.5225 30.6403 26.6395 30.6123 26.754 30.5761C27.2918 30.3924 27.78 30.0871 28.1806 29.6841C28.5813 29.281 28.8836 28.791 29.064 28.2521C30.072 25.1301 27.356 23.9681 25.732 23.2681C25.1527 23.0369 24.5991 22.746 24.08 22.4001C23.8723 22.3049 23.7065 22.1372 23.6137 21.9284C23.5209 21.7196 23.5075 21.4841 23.576 21.2661C23.6231 21.0601 23.7207 20.8691 23.86 20.7103C23.9993 20.5514 24.176 20.4297 24.374 20.3561C24.6367 20.2505 24.9206 20.2081 25.2027 20.2325C25.4848 20.2568 25.7572 20.3471 25.998 20.4961L27.286 21.3221C27.55 21.4992 27.8733 21.5648 28.1854 21.5045C28.4975 21.4441 28.7731 21.2628 28.952 21.0001C29.1255 20.7307 29.1859 20.4037 29.12 20.0901C29.0475 19.7786 28.8567 19.5075 28.588 19.3341L27.3 18.5081C27.0152 18.3274 26.7097 18.1817 26.39 18.0741V16.8561C26.358 16.5609 26.2182 16.288 25.9972 16.0897C25.7763 15.8914 25.4899 15.7817 25.193 15.7817C24.8961 15.7817 24.6097 15.8914 24.3888 16.0897C24.1679 16.288 24.028 16.5609 23.996 16.8561V18.0181L23.436 18.1721C22.8803 18.3967 22.3882 18.754 22.0025 19.2129C21.6169 19.6717 21.3496 20.2181 21.224 20.8041C21.0606 21.4802 21.1147 22.1906 21.3787 22.8341C21.6426 23.4777 22.1029 24.0215 22.694 24.3881V24.4021Z" fill="white"/>
</g>
<defs>
<clipPath id="clip0_78_1046">
<rect width="50.4" height="50.4" fill="white"/>
</clipPath>
</defs>
</svg>
